<svg id="Layer_1" data-name="Layer 1" xmlns="http://www.w3.org/2000/svg" viewBox="0 0 215.03 93.24"><defs><style>.cls-1{fill:#3c6;}.cls-2{fill:#efd729;}</style></defs><path class="cls-1" d="M67.4,61.39a70.77,70.77,0,0,1-4.19,6.87q-2.4,3.48-5.15,7a86,86,0,0,1-6,6.86q-3.3,3.38-7,6.54l-4.6-16.31a97.61,97.61,0,0,0,5.9-8.77,69.6,69.6,0,0,0,4.39-8.7H45.93q-1.3,3-3,6.22c-1.17,2.13-2.48,4.28-3.94,6.43l-3.5-12.65h-5.2l5.2,17.4q-3.19,4.23-7.09,8.44a77.75,77.75,0,0,1-8.59,7.94L11.27,54.85H6.07L16,92.22h5.19a107.67,107.67,0,0,0,8.6-7.72,105.33,105.33,0,0,0,7.09-7.87l4.29,15.59h5.2A117.41,117.41,0,0,0,64.26,73.65a90,90,0,0,0,11.13-18.8H70.5Q69.19,58,67.4,61.39Z"/><path class="cls-1" d="M97,85.07l9.57-45.41h-3.6L93.13,86.14c0,.29-.1.59-.14.9a5.84,5.84,0,0,0-.07.91,4.87,4.87,0,0,0,1.36,3.65,5.2,5.2,0,0,0,3.82,1.34,16.3,16.3,0,0,0,3.1-.36,22.34,22.34,0,0,0,3-.79V88.91c-.62.19-1.3.36-2,.51a10,10,0,0,1-1.87.21c-2.35,0-3.53-1.08-3.53-3.26a4.28,4.28,0,0,1,0-.65C96.86,85.53,96.9,85.31,97,85.07Z"/><path class="cls-1" d="M141.73,87l10.08-47.38h-3.67L143.24,63a14.42,14.42,0,0,0-4.32-6.17,11.33,11.33,0,0,0-7.63-2.58,17,17,0,0,0-7.88,1.94,23,23,0,0,0-6.7,5.2,26.45,26.45,0,0,0-4.64,7.31,21.53,21.53,0,0,0-1.73,8.5A19,19,0,0,0,111.92,85a13.93,13.93,0,0,0,4.61,5.77,12.07,12.07,0,0,0,7.27,2.19,17.18,17.18,0,0,0,8.07-2.22,21.76,21.76,0,0,0,7-6c-.24,1.24-.43,2.19-.57,2.86a11.46,11.46,0,0,0-.25,1.4,6.08,6.08,0,0,0,0,.68,2.53,2.53,0,0,0,.61,1.72,2.69,2.69,0,0,0,1.84.86l.68,0a8.28,8.28,0,0,1,.9,0l.72-3.24c-.81,0-1.22-.36-1.22-1.08a2.38,2.38,0,0,1,0-.39C141.65,87.39,141.68,87.23,141.73,87Zm-2-7.37a11.82,11.82,0,0,1-2.34,3.84,18.48,18.48,0,0,1-3.78,3.22,21.71,21.71,0,0,1-4.36,2.19,12.25,12.25,0,0,1-4.07.78,9.75,9.75,0,0,1-5.87-1.79,11.89,11.89,0,0,1-3.85-4.73,15.29,15.29,0,0,1-1.37-6.52,18.12,18.12,0,0,1,1.37-6.78,22,22,0,0,1,3.78-6.2,19.66,19.66,0,0,1,5.55-4.48,13.84,13.84,0,0,1,6.66-1.68,9.91,9.91,0,0,1,4.93,1.32,12.33,12.33,0,0,1,4,3.59,10.82,10.82,0,0,1,2,5Z"/><path class="cls-1" d="M161.89,74.91c1.92.07,3.7.11,5.33.11q9.93,0,14.72-2.44a8.29,8.29,0,0,0,4.72-8.11A9.75,9.75,0,0,0,185,58.8a10,10,0,0,0-4.4-3.37,15.82,15.82,0,0,0-6.15-1.15,19.47,19.47,0,0,0-8.61,1.9A21.86,21.86,0,0,0,159,61.35a23.11,23.11,0,0,0-4.47,7.35A22.83,22.83,0,0,0,153,77.16a18.73,18.73,0,0,0,1.8,7.89,14.22,14.22,0,0,0,4.94,5.74,13.37,13.37,0,0,0,7.67,2.15,19.33,19.33,0,0,0,6.83-1.18A18.9,18.9,0,0,0,180,88.41a18.58,18.58,0,0,0,4.11-5L181,82.5a14.38,14.38,0,0,1-12.82,7.56A10.38,10.38,0,0,1,162,88.27a11.38,11.38,0,0,1-3.85-4.84,17.41,17.41,0,0,1-1.4-6.77,19.92,19.92,0,0,1,.11-2C158.66,74.75,160.36,74.85,161.89,74.91Zm-4-5.2a20.69,20.69,0,0,1,3.56-6.28A17.88,17.88,0,0,1,167,58.92a14.74,14.74,0,0,1,7-1.69,13.09,13.09,0,0,1,4.46.75,8,8,0,0,1,3.42,2.33,6.22,6.22,0,0,1,1.33,4.16,6.12,6.12,0,0,1-1.4,4.26,9.28,9.28,0,0,1-4.93,2.65,39.38,39.38,0,0,1-9.5.9c-1.59,0-3.27,0-5-.11-1.47-.06-3.19-.14-5.11-.25A22.18,22.18,0,0,1,157.93,69.71Z"/><path class="cls-1" d="M214.31,54.82a5.05,5.05,0,0,0-.94,0A14.94,14.94,0,0,0,206,57.48a24,24,0,0,0-6.56,6.57l2-9.2H198l-7.92,37.37h3.6l5-23.35a19.57,19.57,0,0,1,6.66-7.79,16.68,16.68,0,0,1,9-3l.72-3.25Z"/><path class="cls-2" d="M92.7,33.74a30.84,30.84,0,0,0,2.41-12.17A26.15,26.15,0,0,0,93,10.83,18,18,0,0,0,86.35,3,19.68,19.68,0,0,0,75.26.08,27.75,27.75,0,0,0,63.81,2.54a31.34,31.34,0,0,0-9.72,6.77,32.54,32.54,0,0,0-6.71,10,31,31,0,0,0-2.47,12.32,25.28,25.28,0,0,0,2.22,10.64,18.12,18.12,0,0,0,6.6,7.75,19.67,19.67,0,0,0,11,2.9,28.46,28.46,0,0,0,11.6-2.41c.68-.3.16-1.76.49-.32l3,43,10-6L83.83,50c-.11-4-1.1-2.61,0-3.77C86.68,43.33,91.08,37.53,92.7,33.74ZM82.46,40a25.18,25.18,0,0,1-7.81,5.54,21.5,21.5,0,0,1-9,2,15.24,15.24,0,0,1-8.62-2.3,13.88,13.88,0,0,1-5.19-6.32A22.59,22.59,0,0,1,50.16,30a26.7,26.7,0,0,1,2-10.4,27.5,27.5,0,0,1,5.5-8.43,25.65,25.65,0,0,1,7.81-5.63,21.1,21.1,0,0,1,9-2A14.59,14.59,0,0,1,83,5.92a15.09,15.09,0,0,1,5.19,6.42,22.33,22.33,0,0,1,1.76,9A26.26,26.26,0,0,1,88,31.7,26.91,26.91,0,0,1,82.46,40Z"/><path class="cls-2" d="M17.86,51.84a22.13,22.13,0,0,0,9.57-2.3,33,33,0,0,0,8.39-6l-1.69,7.9h3.24l5.25-24.84H28.51l-.65,2.95h11l-2.1,9.82A37.33,37.33,0,0,1,28.12,46,19.51,19.51,0,0,1,19,48.46,13.57,13.57,0,0,1,10.87,46a16.11,16.11,0,0,1-5.33-6.66,22,22,0,0,1-1.87-9.07,26.55,26.55,0,0,1,1.87-9.68,30.2,30.2,0,0,1,5.19-8.68A25.5,25.5,0,0,1,18.5,5.69a20.72,20.72,0,0,1,9.65-2.31,14.28,14.28,0,0,1,8.46,2.38A12.67,12.67,0,0,1,41.33,13l3.31-1.8a14.7,14.7,0,0,0-5.08-8C37,1,33.38,0,28.73,0A25,25,0,0,0,17.64,2.52,30.19,30.19,0,0,0,8.5,9.36a33.21,33.21,0,0,0-6.23,9.76A29,29,0,0,0,0,30.38a26.93,26.93,0,0,0,1.19,8,22.34,22.34,0,0,0,3.45,6.88A17.17,17.17,0,0,0,10.26,50,15.77,15.77,0,0,0,17.86,51.84Z"/></svg>